<?xml version="1.0" encoding="utf-8"?>
<!-- Svg Vector Icons : http://www.onlinewebfonts.com/icon -->
<!DOCTYPE svg PUBLIC "-//W3C//DTD SVG 1.1//EN" "http://www.w3.org/Graphics/SVG/1.1/DTD/svg11.dtd">
<svg version="1.1" xmlns="http://www.w3.org/2000/svg" xmlns:xlink="http://www.w3.org/1999/xlink" x="0px" y="0px" viewBox="0 0 1000 1000" enable-background="new 0 0 1000 1000" xml:space="preserve">
<metadata> Svg Vector Icons : http://www.onlinewebfonts.com/icon </metadata>
<g><path d="M108.1,949.3c-0.6,27.1-23,48.5-50.1,48c-27.1-0.6-48.5-23-48-50.1c5.4-255.2,259.2-418.6,490-418.6c236.2,0,484.6,163.4,490,418.6c0.5,27.1-21,49.5-48,50.1c-27.1,0.5-49.5-21-50.1-48C887.7,750.1,685.2,626.7,500,626.7C314,626.7,112.1,756.4,108.1,949.3"/><path d="M500,493c108.2,0,196.2-88,196.2-196.2c0-108.1-88-196.2-196.2-196.2c-108.1,0-196.1,88-196.1,196.2C303.9,405,391.8,493,500,493 M500,591.1c-162.5,0-294.2-131.7-294.2-294.2C205.8,134.4,337.5,2.7,500,2.7c162.5,0,294.3,131.7,294.3,294.2C794.2,459.4,662.5,591.1,500,591.1L500,591.1L500,591.1z"/></g>
</svg>